<?xml version="1.0" encoding="utf-8"?>
<!-- Generator: Adobe Illustrator 15.1.0, SVG Export Plug-In . SVG Version: 6.00 Build 0)  -->
<!DOCTYPE svg PUBLIC "-//W3C//DTD SVG 1.1//EN" "http://www.w3.org/Graphics/SVG/1.1/DTD/svg11.dtd">
<svg version="1.1" id="Layer_1" xmlns="http://www.w3.org/2000/svg" xmlns:xlink="http://www.w3.org/1999/xlink" x="0px" y="0px"
	 width="600px" height="131.98px" viewBox="0 0 600 131.98" enable-background="new 0 0 600 131.98" xml:space="preserve">
<g>
	<path fill="#FF0099" d="M156.694,16.37c-8.01-7.12-19.273-11.041-31.721-11.041c-12.188,0-23.934,4.513-32.227,12.379l-0.688,0.65
		l-0.687-0.65C83.078,9.842,71.333,5.329,59.146,5.329C46.7,5.329,35.435,9.25,27.425,16.37C19.754,23.188,15,30.269,15,44.475
		l0.003,82.566h22.456l0.004-82.566c0-10.858,9.522-19.364,21.684-19.364c12.158,0,21.684,8.505,21.684,19.364l0.002,82.566h22.458
		l0.004-82.566c0-10.858,9.522-19.364,21.681-19.364c12.16,0,21.685,8.505,21.685,19.364l0.004,82.566h22.453l0.007-82.566
		C169.119,30.269,164.365,23.188,156.694,16.37"/>
	<path fill="#FF0099" d="M259.27,16.248C251.655,9.105,240.877,5.33,228.103,5.33c-21.271,0-33.396,12.134-39.229,17.98
		l9.253,16.257l0.047-0.051c5.538-5.999,20.677-19.209,41.58-12.312l0.094,0.036c4.31,1.926,9.443,5.836,9.457,13.526l0.002,0.05
		c0.11,0.965,0.166,1.992,0.166,3.054v6.375l-24.154,4.801c-11.58,2.277-20.949,6.195-27.854,11.646
		c-8.552,6.751-12.889,15.499-12.889,26.006c0,11.12,4.625,20.511,13.377,27.161c7.772,5.906,18.328,9.16,29.723,9.16
		c11.365,0,22.005-3.754,29.961-10.569c8.335-7.14,12.926-17.073,12.926-27.971V43.871C270.56,31.934,267.183,23.674,259.27,16.248
		 M249.473,90.477c0,5.543-1.991,10.631-5.605,14.321c-3.984,4.067-9.656,6.221-16.407,6.221c-4.702,0-13.35-0.914-18.424-7.041
		c-3.953-4.771-4.563-11.69-1.515-17.227c5.393-9.789,17.702-13.479,29.036-15.797l1.251-0.255c2.511-0.508,8.393-1.701,10.469-2.14
		l1.195-0.254V90.477L249.473,90.477z"/>
	<path fill="#FF0099" d="M355.228,15.086c-1.795-1.583-3.695-3.015-5.65-4.258c-4.562-2.9-9.197-4.675-13.786-5.271
		c-8.902-1.154-19.453,0.955-27.535,5.509c-2.596,1.461-4.979,3.205-7.084,5.182c-7.322,6.869-11.29,13.308-11.29,27.623v83.172
		h21.085L310.97,48.4c0-1.883,0-3.77,0.001-5.651c0.002-2.013,0.046-3.83,0.567-5.682c0.852-3.005,2.736-5.813,5.313-7.907
		c1.167-0.948,2.425-1.726,3.739-2.313c8.202-3.404,17.176-1.411,24.201,5.309c9.401-8.755,12.932-12.039,14.285-13.286
		C357.959,17.63,355.686,15.492,355.228,15.086"/>
	<path fill="#FF0099" d="M549.061,5.329c-21.271,0-33.396,12.134-39.229,17.98l9.256,16.257l0.047-0.051
		c5.539-5.999,20.679-19.209,41.581-12.312l0.093,0.036c4.311,1.927,9.442,5.837,9.458,13.526l0.002,0.05
		c0.109,0.965,0.165,1.992,0.165,3.054v6.375l-24.154,4.801c-11.581,2.277-20.952,6.195-27.854,11.646
		c-8.555,6.751-12.891,15.5-12.891,26.006c0,11.12,4.625,20.511,13.377,27.161c7.773,5.906,18.329,9.16,29.725,9.16
		c11.365,0,22.005-3.754,29.962-10.569c8.334-7.14,12.925-17.073,12.925-27.971V43.871c0-11.141-3.903-20.693-11.291-27.623
		C572.612,9.105,561.836,5.329,549.061,5.329 M570.431,90.477c0,5.543-1.991,10.631-5.606,14.321
		c-3.982,4.067-9.655,6.221-16.408,6.221c-4.698,0-13.347-0.914-18.424-7.041c-3.953-4.771-4.561-11.69-1.513-17.227
		c5.391-9.789,17.702-13.479,29.035-15.797l1.211-0.246c2.518-0.511,8.421-1.707,10.511-2.146l1.194-0.254V90.477L570.431,90.477z"
		/>
	<path fill="#FF0099" d="M470.392,62.063c-5.431-2.896-11.088-5.026-17.389-7.317l-0.926-0.334
		c-4.063-1.475-8.261-2.997-12.146-4.96c-4.902-2.475-7.634-5.183-8.598-8.521l-0.031-0.104c-0.844-3.081-0.141-6.385,1.887-8.854
		c1.903-2.32,4.854-4.11,8.77-5.322c1.731-0.536,3.557-0.92,5.418-1.144c6.732-0.807,13.669,0.4,20.053,3.487
		c4.28,2.069,8.306,4.913,11.961,8.448c0.172,0.166,1.669,1.666,2.019,2.071l0.049,0.054l0.029-0.053
		c0.065-0.117,8.686-15.261,9.225-16.206c-5.839-5.85-17.961-17.98-39.229-17.98c-13.155,0-25.069,4.197-32.686,11.515
		c-7.931,7.62-11.025,18.921-8.081,29.489c2.244,8.062,8.662,15.262,18.066,20.281c5.885,3.139,12.346,5.545,17.938,7.555
		l0.709,0.255c4.896,1.76,9.961,3.574,14.411,6.338c5.245,3.261,7.903,7.479,7.903,12.537c0,6.97-5.688,11.861-11.834,14.54
		c-6.847,2.983-14.804,2.019-21.843-0.083c-9.572-2.807-19.247-12.592-19.344-12.689l-9.51,15.98
		c5.842,5.854,17.965,17.971,39.218,17.971c1.723,0,3.479-0.077,5.229-0.232l1.076-0.095v0.027l0.039-0.004
		c9.402-0.949,17.896-4.115,24.563-9.153c8.699-6.574,13.49-15.899,13.49-26.262c0-7.44-2.084-14.19-6.024-19.521
		C481.49,69.3,476.777,65.467,470.392,62.063"/>
	<rect x="370.672" y="7.346" fill="#FF0099" width="21.087" height="119.693"/>
</g>
</svg>
